<svg id="visual" viewBox="0 0 2160 3840" width="2160" height="3840" xmlns="http://www.w3.org/2000/svg" xmlns:xlink="http://www.w3.org/1999/xlink" version="1.1"><g><g transform="translate(1697 1243)"><path d="M402.3 -108.9C457.5 39.3 394.5 247.8 259.9 341.8C125.3 435.9 -80.9 415.5 -226 310.3C-371 205.1 -455 15 -407.1 -123C-359.3 -261.1 -179.6 -347 -3.1 -346C173.5 -345 347 -257.1 402.3 -108.9Z" fill="none" stroke="#F7770F" stroke-width="20"></path></g><g transform="translate(33 1241)"><path d="M236.5 -70.8C272.4 33.4 243.7 164.7 153.6 235.9C63.5 307.2 -88 318.4 -173.1 253.1C-258.2 187.7 -276.9 45.8 -237 -64C-197.1 -173.9 -98.5 -251.8 0.9 -252.1C100.3 -252.4 200.7 -175.1 236.5 -70.8Z" fill="none" stroke="#F7770F" stroke-width="20"></path></g><g transform="translate(1136 2934)"><path d="M248.1 -73.8C280.7 19.8 238.2 144.6 156.5 200.4C74.9 256.1 -46 242.9 -120.2 184.4C-194.5 126 -222.1 22.4 -194.3 -64.5C-166.5 -151.5 -83.3 -221.8 12.2 -225.8C107.7 -229.8 215.4 -167.4 248.1 -73.8Z" fill="none" stroke="#F7770F" stroke-width="20"></path></g><g transform="translate(1963 3817)"><path d="M235.8 -85C266.5 18 225.5 136 138.8 201.4C52.1 266.9 -80.3 279.9 -159.2 221.9C-238 164 -263.3 35.1 -227.8 -74.4C-192.4 -184 -96.2 -274.2 3.2 -275.2C102.5 -276.2 205 -188.1 235.8 -85Z" fill="none" stroke="#F7770F" stroke-width="20"></path></g><g transform="translate(956 41)"><path d="M202.7 -58.8C235.5 35.1 216.2 153 144.4 207.2C72.6 261.3 -51.7 251.7 -136.8 189.6C-221.9 127.4 -267.9 12.7 -238.6 -76.4C-209.3 -165.4 -104.6 -228.9 -9.8 -225.7C84.9 -222.5 169.9 -152.6 202.7 -58.8Z" fill="none" stroke="#F7770F" stroke-width="20"></path></g><g transform="translate(136 3577)"><path d="M354.1 -120.8C397.7 19.1 329.7 189.6 206.5 277.6C83.3 365.5 -95.1 370.9 -207.3 288.6C-319.4 206.4 -365.4 36.3 -319.8 -106.2C-274.2 -248.8 -137.1 -364 9.1 -367C155.3 -369.9 310.5 -260.6 354.1 -120.8Z" fill="none" stroke="#F7770F" stroke-width="20"></path></g></g></svg>