<svg id="visual" viewBox="0 0 960 540" width="960" height="540" xmlns="http://www.w3.org/2000/svg" xmlns:xlink="http://www.w3.org/1999/xlink" version="1.1"><rect x="0" y="0" width="960" height="540" fill="#001220"></rect><defs><linearGradient id="grad1_0" x1="43.8%" y1="0%" x2="100%" y2="100%"><stop offset="14.444444444444446%" stop-color="#001220" stop-opacity="1"></stop><stop offset="85.55555555555554%" stop-color="#001220" stop-opacity="1"></stop></linearGradient></defs><defs><linearGradient id="grad2_0" x1="0%" y1="0%" x2="56.3%" y2="100%"><stop offset="14.444444444444446%" stop-color="#001220" stop-opacity="1"></stop><stop offset="85.55555555555554%" stop-color="#001220" stop-opacity="1"></stop></linearGradient></defs><g transform="translate(960, 0)"><path d="M0 486C-67 482.1 -134 478.3 -186 449C-238 419.7 -275 365.1 -318.9 318.9C-362.8 272.7 -413.5 235 -442.5 183.3C-471.5 131.6 -478.8 65.8 -486 0L0 0Z" fill="#F7770F"></path></g><g transform="translate(0, 540)"><path d="M0 -486C62.9 -479.1 125.9 -472.2 186 -449C246.1 -425.8 303.3 -386.3 335.2 -335.2C367 -284 373.6 -221.2 394.5 -163.4C415.4 -105.6 450.7 -52.8 486 0L0 0Z" fill="#F7770F"></path></g></svg>