<svg id="visual" viewBox="0 0 3840 2160" width="3840" height="2160" xmlns="http://www.w3.org/2000/svg" xmlns:xlink="http://www.w3.org/1999/xlink" version="1.1"><rect x="0" y="0" width="3840" height="2160" fill="#001122"></rect><defs><linearGradient id="grad1_0" x1="43.8%" y1="0%" x2="100%" y2="100%"><stop offset="14.444444444444446%" stop-color="#3db7fc" stop-opacity="1"></stop><stop offset="85.55555555555554%" stop-color="#3db7fc" stop-opacity="1"></stop></linearGradient></defs><defs><linearGradient id="grad1_1" x1="43.8%" y1="0%" x2="100%" y2="100%"><stop offset="14.444444444444446%" stop-color="#3db7fc" stop-opacity="1"></stop><stop offset="85.55555555555554%" stop-color="#3591cc" stop-opacity="1"></stop></linearGradient></defs><defs><linearGradient id="grad1_2" x1="43.8%" y1="0%" x2="100%" y2="100%"><stop offset="14.444444444444446%" stop-color="#2a6e9e" stop-opacity="1"></stop><stop offset="85.55555555555554%" stop-color="#3591cc" stop-opacity="1"></stop></linearGradient></defs><defs><linearGradient id="grad1_3" x1="43.8%" y1="0%" x2="100%" y2="100%"><stop offset="14.444444444444446%" stop-color="#2a6e9e" stop-opacity="1"></stop><stop offset="85.55555555555554%" stop-color="#1d4d71" stop-opacity="1"></stop></linearGradient></defs><defs><linearGradient id="grad1_4" x1="43.8%" y1="0%" x2="100%" y2="100%"><stop offset="14.444444444444446%" stop-color="#0f2e48" stop-opacity="1"></stop><stop offset="85.55555555555554%" stop-color="#1d4d71" stop-opacity="1"></stop></linearGradient></defs><defs><linearGradient id="grad1_5" x1="43.8%" y1="0%" x2="100%" y2="100%"><stop offset="14.444444444444446%" stop-color="#0f2e48" stop-opacity="1"></stop><stop offset="85.55555555555554%" stop-color="#001122" stop-opacity="1"></stop></linearGradient></defs><defs><linearGradient id="grad2_0" x1="0%" y1="0%" x2="56.3%" y2="100%"><stop offset="14.444444444444446%" stop-color="#3db7fc" stop-opacity="1"></stop><stop offset="85.55555555555554%" stop-color="#3db7fc" stop-opacity="1"></stop></linearGradient></defs><defs><linearGradient id="grad2_1" x1="0%" y1="0%" x2="56.3%" y2="100%"><stop offset="14.444444444444446%" stop-color="#3591cc" stop-opacity="1"></stop><stop offset="85.55555555555554%" stop-color="#3db7fc" stop-opacity="1"></stop></linearGradient></defs><defs><linearGradient id="grad2_2" x1="0%" y1="0%" x2="56.3%" y2="100%"><stop offset="14.444444444444446%" stop-color="#3591cc" stop-opacity="1"></stop><stop offset="85.55555555555554%" stop-color="#2a6e9e" stop-opacity="1"></stop></linearGradient></defs><defs><linearGradient id="grad2_3" x1="0%" y1="0%" x2="56.3%" y2="100%"><stop offset="14.444444444444446%" stop-color="#1d4d71" stop-opacity="1"></stop><stop offset="85.55555555555554%" stop-color="#2a6e9e" stop-opacity="1"></stop></linearGradient></defs><defs><linearGradient id="grad2_4" x1="0%" y1="0%" x2="56.3%" y2="100%"><stop offset="14.444444444444446%" stop-color="#1d4d71" stop-opacity="1"></stop><stop offset="85.55555555555554%" stop-color="#0f2e48" stop-opacity="1"></stop></linearGradient></defs><defs><linearGradient id="grad2_5" x1="0%" y1="0%" x2="56.3%" y2="100%"><stop offset="14.444444444444446%" stop-color="#001122" stop-opacity="1"></stop><stop offset="85.55555555555554%" stop-color="#0f2e48" stop-opacity="1"></stop></linearGradient></defs><g transform="translate(3840, 0)"><path d="M0 1620C-219.3 1469.6 -438.7 1319.1 -694.5 1202.9C-950.3 1086.7 -1242.6 1004.8 -1403 810C-1563.3 615.2 -1591.6 307.6 -1620 0L0 0Z" fill="#071f34"></path><path d="M0 1350C-182.8 1224.6 -365.6 1099.3 -578.7 1002.4C-791.9 905.6 -1035.5 837.3 -1169.1 675C-1302.7 512.7 -1326.4 256.3 -1350 0L0 0Z" fill="#163d5c"></path><path d="M0 1080C-146.2 979.7 -292.5 879.4 -463 801.9C-633.5 724.5 -828.4 669.9 -935.3 540C-1042.2 410.1 -1061.1 205.1 -1080 0L0 0Z" fill="#245d87"></path><path d="M0 810C-109.7 734.8 -219.3 659.6 -347.2 601.5C-475.2 543.4 -621.3 502.4 -701.5 405C-781.6 307.6 -795.8 153.8 -810 0L0 0Z" fill="#307fb5"></path><path d="M0 540C-73.1 489.9 -146.2 439.7 -231.5 401C-316.8 362.2 -414.2 334.9 -467.7 270C-521.1 205.1 -530.5 102.5 -540 0L0 0Z" fill="#39a4e4"></path><path d="M0 270C-36.6 244.9 -73.1 219.9 -115.7 200.5C-158.4 181.1 -207.1 167.5 -233.8 135C-260.5 102.5 -265.3 51.3 -270 0L0 0Z" fill="#3db7fc"></path></g><g transform="translate(0, 2160)"><path d="M0 -1620C332.4 -1606 664.9 -1592 810 -1403C955.1 -1214 912.9 -850 1016.7 -587C1120.5 -324 1370.2 -162 1620 0L0 0Z" fill="#071f34"></path><path d="M0 -1350C277 -1338.3 554.1 -1326.6 675 -1169.1C795.9 -1011.6 760.8 -708.3 847.3 -489.2C933.7 -270 1141.9 -135 1350 0L0 0Z" fill="#163d5c"></path><path d="M0 -1080C221.6 -1070.7 443.3 -1061.3 540 -935.3C636.7 -809.3 608.6 -566.7 677.8 -391.3C747 -216 913.5 -108 1080 0L0 0Z" fill="#245d87"></path><path d="M0 -810C166.2 -803 332.4 -796 405 -701.5C477.6 -607 456.5 -425 508.4 -293.5C560.2 -162 685.1 -81 810 0L0 0Z" fill="#307fb5"></path><path d="M0 -540C110.8 -535.3 221.6 -530.7 270 -467.7C318.4 -404.7 304.3 -283.3 338.9 -195.7C373.5 -108 456.7 -54 540 0L0 0Z" fill="#39a4e4"></path><path d="M0 -270C55.4 -267.7 110.8 -265.3 135 -233.8C159.2 -202.3 152.2 -141.7 169.5 -97.8C186.7 -54 228.4 -27 270 0L0 0Z" fill="#3db7fc"></path></g></svg>