<svg id="visual" viewBox="0 0 900 600" width="900" height="600" xmlns="http://www.w3.org/2000/svg" xmlns:xlink="http://www.w3.org/1999/xlink" version="1.1"><rect x="0" y="0" width="900" height="600" fill="#00070c"></rect><defs><linearGradient id="grad1_0" x1="33.3%" y1="100%" x2="100%" y2="0%"><stop offset="20%" stop-color="#00070c" stop-opacity="1"></stop><stop offset="80%" stop-color="#00070c" stop-opacity="1"></stop></linearGradient></defs><defs><linearGradient id="grad2_0" x1="0%" y1="100%" x2="66.7%" y2="0%"><stop offset="20%" stop-color="#00070c" stop-opacity="1"></stop><stop offset="80%" stop-color="#00070c" stop-opacity="1"></stop></linearGradient></defs><g transform="translate(900, 600)"><path d="M-432.7 0C-428.2 -87.6 -423.8 -175.2 -374.7 -216.3C-325.6 -257.5 -231.9 -252.3 -162 -280.6C-92.1 -308.9 -46.1 -370.8 0 -432.7L0 0Z" fill="#b16a00"></path></g><g transform="translate(0, 0)"><path d="M432.7 0C425.9 83.5 419.1 167.1 374.7 216.3C330.3 265.6 248.2 280.6 179.5 310.9C110.8 341.2 55.4 387 0 432.7L0 0Z" fill="#b16a00"></path></g></svg>