<svg id="visual" viewBox="0 0 675 900" width="675" height="900" xmlns="http://www.w3.org/2000/svg" xmlns:xlink="http://www.w3.org/1999/xlink" version="1.1"><rect x="0" y="0" width="675" height="900" fill="#000911"></rect><defs><linearGradient id="grad1_0" x1="0%" y1="0%" x2="100%" y2="100%"><stop offset="30%" stop-color="#000911" stop-opacity="1"></stop><stop offset="70%" stop-color="#000911" stop-opacity="1"></stop></linearGradient></defs><defs><linearGradient id="grad2_0" x1="0%" y1="0%" x2="100%" y2="100%"><stop offset="30%" stop-color="#000911" stop-opacity="1"></stop><stop offset="70%" stop-color="#000911" stop-opacity="1"></stop></linearGradient></defs><g transform="translate(675, 0)"><path d="M0 506.3C-67.1 500.4 -134.2 494.5 -193.7 467.7C-253.3 440.9 -305.3 393.1 -340.8 340.8C-376.4 288.5 -395.5 231.7 -420.4 174.1C-445.2 116.6 -475.7 58.3 -506.2 0L0 0Z" fill="#F7770F"></path></g><g transform="translate(0, 900)"><path d="M0 -506.2C74.9 -507.8 149.7 -509.4 193.7 -467.7C237.7 -426.1 250.9 -341.2 290.6 -290.6C330.3 -240 396.6 -223.7 437 -181C477.4 -138.3 491.8 -69.1 506.3 0L0 0Z" fill="#F7770F"></path></g></svg>