<svg id="visual" viewBox="0 0 3840 2160" width="3840" height="2160" xmlns="http://www.w3.org/2000/svg" xmlns:xlink="http://www.w3.org/1999/xlink" version="1.1"><path d="M0 1716L549 1419L1097 1648L1646 1423L2194 1745L2743 1798L3291 1457L3840 1747L3840 2161L3291 2161L2743 2161L2194 2161L1646 2161L1097 2161L549 2161L0 2161Z" fill="#5d0087"></path><path d="M0 1880L549 1567L1097 1533L1646 1734L2194 1675L2743 1509L3291 1469L3840 1656L3840 2161L3291 2161L2743 2161L2194 2161L1646 2161L1097 2161L549 2161L0 2161Z" fill="#5e0093"></path><path d="M0 1730L549 1772L1097 1828L1646 1729L2194 1709L2743 1671L3291 1831L3840 1919L3840 2161L3291 2161L2743 2161L2194 2161L1646 2161L1097 2161L549 2161L0 2161Z" fill="#5d00a0"></path><path d="M0 1763L549 1681L1097 1958L1646 1765L2194 1714L2743 1778L3291 1662L3840 1661L3840 2161L3291 2161L2743 2161L2194 2161L1646 2161L1097 2161L549 2161L0 2161Z" fill="#5c00ad"></path><path d="M0 1781L549 1752L1097 1784L1646 1771L2194 1739L2743 1837L3291 1789L3840 1906L3840 2161L3291 2161L2743 2161L2194 2161L1646 2161L1097 2161L549 2161L0 2161Z" fill="#5800ba"></path><path d="M0 2006L549 1920L1097 1883L1646 1776L2194 1959L2743 1856L3291 1972L3840 1775L3840 2161L3291 2161L2743 2161L2194 2161L1646 2161L1097 2161L549 2161L0 2161Z" fill="#5200c8"></path><path d="M0 2006L549 1898L1097 1997L1646 1947L2194 1883L2743 1882L3291 1901L3840 2015L3840 2161L3291 2161L2743 2161L2194 2161L1646 2161L1097 2161L549 2161L0 2161Z" fill="#4800d7"></path><path d="M0 1968L549 1964L1097 1955L1646 1985L2194 1981L2743 2004L3291 2025L3840 2054L3840 2161L3291 2161L2743 2161L2194 2161L1646 2161L1097 2161L549 2161L0 2161Z" fill="#3704e6"></path><path d="M0 2095L549 2011L1097 2022L1646 2033L2194 2005L2743 2006L3291 2039L3840 2014L3840 2161L3291 2161L2743 2161L2194 2161L1646 2161L1097 2161L549 2161L0 2161Z" fill="#100af5"></path></svg>