<svg id="visual" viewBox="0 0 3840 2160" width="3840" height="2160" xmlns="http://www.w3.org/2000/svg" xmlns:xlink="http://www.w3.org/1999/xlink" version="1.1"><path d="M0 390L640 386L1280 383L1920 397L2560 308L3200 353L3840 392L3840 0L3200 0L2560 0L1920 0L1280 0L640 0L0 0Z" fill="#871200"></path><path d="M0 327L640 304L1280 245L1920 306L2560 298L3200 324L3840 319L3840 0L3200 0L2560 0L1920 0L1280 0L640 0L0 0Z" fill="#ad3506"></path><path d="M0 185L640 198L1280 214L1920 215L2560 192L3200 200L3840 209L3840 0L3200 0L2560 0L1920 0L1280 0L640 0L0 0Z" fill="#d3550b"></path><path d="M0 140L640 130L1280 118L1920 121L2560 143L3200 107L3840 139L3840 0L3200 0L2560 0L1920 0L1280 0L640 0L0 0Z" fill="#f7770f"></path></svg>