<svg id="visual" viewBox="0 0 900 600" width="900" height="600" xmlns="http://www.w3.org/2000/svg" xmlns:xlink="http://www.w3.org/1999/xlink" version="1.1"><path d="M0 304L150 357L300 328L450 321L600 305L750 375L900 309L900 0L750 0L600 0L450 0L300 0L150 0L0 0Z" fill="#001122"></path><path d="M0 226L150 274L300 247L450 296L600 242L750 285L900 277L900 0L750 0L600 0L450 0L300 0L150 0L0 0Z" fill="#003067"></path><path d="M0 216L150 220L300 175L450 172L600 199L750 170L900 181L900 0L750 0L600 0L450 0L300 0L150 0L0 0Z" fill="#004cb1"></path><path d="M0 108L150 101L300 136L450 99L600 99L750 139L900 96L900 0L750 0L600 0L450 0L300 0L150 0L0 0Z" fill="#0066ff"></path></svg>