<svg id="visual" viewBox="0 0 3840 2160" width="3840" height="2160" xmlns="http://www.w3.org/2000/svg" xmlns:xlink="http://www.w3.org/1999/xlink" version="1.1"><path d="M0 174L58.2 213.5C116.3 253 232.7 332 349 360.8C465.3 389.7 581.7 368.3 698 339.7C814.3 311 930.7 275 1047 282.2C1163.3 289.3 1279.7 339.7 1396 361.2C1512.3 382.7 1628.7 375.3 1745.2 357.3C1861.7 339.3 1978.3 310.7 2094.8 289.2C2211.3 267.7 2327.7 253.3 2444 231.7C2560.3 210 2676.7 181 2793 184.5C2909.3 188 3025.7 224 3142 252.8C3258.3 281.7 3374.7 303.3 3491 303.3C3607.3 303.3 3723.7 281.7 3781.8 270.8L3840 260L3840 0L3781.8 0C3723.7 0 3607.3 0 3491 0C3374.7 0 3258.3 0 3142 0C3025.7 0 2909.3 0 2793 0C2676.7 0 2560.3 0 2444 0C2327.7 0 2211.3 0 2094.8 0C1978.3 0 1861.7 0 1745.2 0C1628.7 0 1512.3 0 1396 0C1279.7 0 1163.3 0 1047 0C930.7 0 814.3 0 698 0C581.7 0 465.3 0 349 0C232.7 0 116.3 0 58.2 0L0 0Z" fill="#6198ff"></path><path d="M0 390L58.2 426C116.3 462 232.7 534 349 555.5C465.3 577 581.7 548 698 522.8C814.3 497.7 930.7 476.3 1047 516C1163.3 555.7 1279.7 656.3 1396 670.7C1512.3 685 1628.7 613 1745.2 566.2C1861.7 519.3 1978.3 497.7 2094.8 497.7C2211.3 497.7 2327.7 519.3 2444 512.2C2560.3 505 2676.7 469 2793 479.8C2909.3 490.7 3025.7 548.3 3142 573.5C3258.3 598.7 3374.7 591.3 3491 558.8C3607.3 526.3 3723.7 468.7 3781.8 439.8L3840 411L3840 258L3781.8 268.8C3723.7 279.7 3607.3 301.3 3491 301.3C3374.7 301.3 3258.3 279.7 3142 250.8C3025.7 222 2909.3 186 2793 182.5C2676.7 179 2560.3 208 2444 229.7C2327.7 251.3 2211.3 265.7 2094.8 287.2C1978.3 308.7 1861.7 337.3 1745.2 355.3C1628.7 373.3 1512.3 380.7 1396 359.2C1279.7 337.7 1163.3 287.3 1047 280.2C930.7 273 814.3 309 698 337.7C581.7 366.3 465.3 387.7 349 358.8C232.7 330 116.3 251 58.2 211.5L0 172Z" fill="#005fee"></path><path d="M0 735L58.2 789C116.3 843 232.7 951 349 987C465.3 1023 581.7 987 698 925.8C814.3 864.7 930.7 778.3 1047 785.7C1163.3 793 1279.7 894 1396 940.8C1512.3 987.7 1628.7 980.3 1745.2 944.3C1861.7 908.3 1978.3 843.7 2094.8 807.7C2211.3 771.7 2327.7 764.3 2444 764.3C2560.3 764.3 2676.7 771.7 2793 789.7C2909.3 807.7 3025.7 836.3 3142 875.8C3258.3 915.3 3374.7 965.7 3491 954.8C3607.3 944 3723.7 872 3781.8 836L3840 800L3840 409L3781.8 437.8C3723.7 466.7 3607.3 524.3 3491 556.8C3374.7 589.3 3258.3 596.7 3142 571.5C3025.7 546.3 2909.3 488.7 2793 477.8C2676.7 467 2560.3 503 2444 510.2C2327.7 517.3 2211.3 495.7 2094.8 495.7C1978.3 495.7 1861.7 517.3 1745.2 564.2C1628.7 611 1512.3 683 1396 668.7C1279.7 654.3 1163.3 553.7 1047 514C930.7 474.3 814.3 495.7 698 520.8C581.7 546 465.3 575 349 553.5C232.7 532 116.3 460 58.2 424L0 388Z" fill="#004cbb"></path><path d="M0 1772L58.2 1772C116.3 1772 232.7 1772 349 1768.5C465.3 1765 581.7 1758 698 1732.8C814.3 1707.7 930.7 1664.3 1047 1606.7C1163.3 1549 1279.7 1477 1396 1505.8C1512.3 1534.7 1628.7 1664.3 1745.2 1732.7C1861.7 1801 1978.3 1808 2094.8 1757.5C2211.3 1707 2327.7 1599 2444 1595.5C2560.3 1592 2676.7 1693 2793 1664.3C2909.3 1635.7 3025.7 1477.3 3142 1470.2C3258.3 1463 3374.7 1607 3491 1675.3C3607.3 1743.7 3723.7 1736.3 3781.8 1732.7L3840 1729L3840 798L3781.8 834C3723.7 870 3607.3 942 3491 952.8C3374.7 963.7 3258.3 913.3 3142 873.8C3025.7 834.3 2909.3 805.7 2793 787.7C2676.7 769.7 2560.3 762.3 2444 762.3C2327.7 762.3 2211.3 769.7 2094.8 805.7C1978.3 841.7 1861.7 906.3 1745.2 942.3C1628.7 978.3 1512.3 985.7 1396 938.8C1279.7 892 1163.3 791 1047 783.7C930.7 776.3 814.3 862.7 698 923.8C581.7 985 465.3 1021 349 985C232.7 949 116.3 841 58.2 787L0 733Z" fill="#005fee"></path><path d="M0 2161L58.2 2161C116.3 2161 232.7 2161 349 2161C465.3 2161 581.7 2161 698 2161C814.3 2161 930.7 2161 1047 2161C1163.3 2161 1279.7 2161 1396 2161C1512.3 2161 1628.7 2161 1745.2 2161C1861.7 2161 1978.3 2161 2094.8 2161C2211.3 2161 2327.7 2161 2444 2161C2560.3 2161 2676.7 2161 2793 2161C2909.3 2161 3025.7 2161 3142 2161C3258.3 2161 3374.7 2161 3491 2161C3607.3 2161 3723.7 2161 3781.8 2161L3840 2161L3840 1727L3781.8 1730.7C3723.7 1734.3 3607.3 1741.7 3491 1673.3C3374.7 1605 3258.3 1461 3142 1468.2C3025.7 1475.3 2909.3 1633.7 2793 1662.3C2676.7 1691 2560.3 1590 2444 1593.5C2327.7 1597 2211.3 1705 2094.8 1755.5C1978.3 1806 1861.7 1799 1745.2 1730.7C1628.7 1662.3 1512.3 1532.7 1396 1503.8C1279.7 1475 1163.3 1547 1047 1604.7C930.7 1662.3 814.3 1705.7 698 1730.8C581.7 1756 465.3 1763 349 1766.5C232.7 1770 116.3 1770 58.2 1770L0 1770Z" fill="#6198ff"></path></svg>