<svg id="visual" viewBox="0 0 900 600" width="900" height="600" xmlns="http://www.w3.org/2000/svg" xmlns:xlink="http://www.w3.org/1999/xlink" version="1.1"><rect x="0" y="0" width="900" height="600" fill="#001220"></rect><path d="M0 440L21.5 433.5C43 427 86 414 128.8 401.7C171.7 389.3 214.3 377.7 257.2 384.3C300 391 343 416 385.8 423C428.7 430 471.3 419 514.2 412C557 405 600 402 642.8 401C685.7 400 728.3 401 771.2 407.3C814 413.7 857 425.3 878.5 431.2L900 437L900 601L878.5 601C857 601 814 601 771.2 601C728.3 601 685.7 601 642.8 601C600 601 557 601 514.2 601C471.3 601 428.7 601 385.8 601C343 601 300 601 257.2 601C214.3 601 171.7 601 128.8 601C86 601 43 601 21.5 601L0 601Z" fill="#7269fa"></path><path d="M0 453L21.5 447.2C43 441.3 86 429.7 128.8 425.2C171.7 420.7 214.3 423.3 257.2 422.8C300 422.3 343 418.7 385.8 426.8C428.7 435 471.3 455 514.2 452.3C557 449.7 600 424.3 642.8 418.8C685.7 413.3 728.3 427.7 771.2 428.3C814 429 857 416 878.5 409.5L900 403L900 601L878.5 601C857 601 814 601 771.2 601C728.3 601 685.7 601 642.8 601C600 601 557 601 514.2 601C471.3 601 428.7 601 385.8 601C343 601 300 601 257.2 601C214.3 601 171.7 601 128.8 601C86 601 43 601 21.5 601L0 601Z" fill="#4749d4"></path><path d="M0 477L21.5 480.3C43 483.7 86 490.3 128.8 495C171.7 499.7 214.3 502.3 257.2 497C300 491.7 343 478.3 385.8 473.7C428.7 469 471.3 473 514.2 474.3C557 475.7 600 474.3 642.8 479.8C685.7 485.3 728.3 497.7 771.2 498.3C814 499 857 488 878.5 482.5L900 477L900 601L878.5 601C857 601 814 601 771.2 601C728.3 601 685.7 601 642.8 601C600 601 557 601 514.2 601C471.3 601 428.7 601 385.8 601C343 601 300 601 257.2 601C214.3 601 171.7 601 128.8 601C86 601 43 601 21.5 601L0 601Z" fill="#002baf"></path><path d="M0 494L21.5 492.7C43 491.3 86 488.7 128.8 492C171.7 495.3 214.3 504.7 257.2 511.2C300 517.7 343 521.3 385.8 524.7C428.7 528 471.3 531 514.2 531C557 531 600 528 642.8 519.8C685.7 511.7 728.3 498.3 771.2 495.8C814 493.3 857 501.7 878.5 505.8L900 510L900 601L878.5 601C857 601 814 601 771.2 601C728.3 601 685.7 601 642.8 601C600 601 557 601 514.2 601C471.3 601 428.7 601 385.8 601C343 601 300 601 257.2 601C214.3 601 171.7 601 128.8 601C86 601 43 601 21.5 601L0 601Z" fill="#000f8b"></path><path d="M0 548L21.5 550.3C43 552.7 86 557.3 128.8 558.8C171.7 560.3 214.3 558.7 257.2 553.2C300 547.7 343 538.3 385.8 534.7C428.7 531 471.3 533 514.2 538.8C557 544.7 600 554.3 642.8 556.2C685.7 558 728.3 552 771.2 545.5C814 539 857 532 878.5 528.5L900 525L900 601L878.5 601C857 601 814 601 771.2 601C728.3 601 685.7 601 642.8 601C600 601 557 601 514.2 601C471.3 601 428.7 601 385.8 601C343 601 300 601 257.2 601C214.3 601 171.7 601 128.8 601C86 601 43 601 21.5 601L0 601Z" fill="#000000"></path></svg>