<svg id="visual" viewBox="0 0 3840 2160" width="3840" height="2160" xmlns="http://www.w3.org/2000/svg" xmlns:xlink="http://www.w3.org/1999/xlink" version="1.1"><path d="M0 1251L91.5 1233.3C183 1215.7 366 1180.3 548.8 1199.5C731.7 1218.7 914.3 1292.3 1097.2 1287.8C1280 1283.3 1463 1200.7 1645.8 1266.7C1828.7 1332.7 2011.3 1547.3 2194.2 1639C2377 1730.7 2560 1699.3 2742.8 1622.8C2925.7 1546.3 3108.3 1424.7 3291.2 1363C3474 1301.3 3657 1299.7 3748.5 1298.8L3840 1298L3840 2161L3748.5 2161C3657 2161 3474 2161 3291.2 2161C3108.3 2161 2925.7 2161 2742.8 2161C2560 2161 2377 2161 2194.2 2161C2011.3 2161 1828.7 2161 1645.8 2161C1463 2161 1280 2161 1097.2 2161C914.3 2161 731.7 2161 548.8 2161C366 2161 183 2161 91.5 2161L0 2161Z" fill="#fcaf3c"></path><path d="M0 1291L91.5 1323C183 1355 366 1419 548.8 1506.8C731.7 1594.7 914.3 1706.3 1097.2 1752.2C1280 1798 1463 1778 1645.8 1697C1828.7 1616 2011.3 1474 2194.2 1447.8C2377 1421.7 2560 1511.3 2742.8 1572.2C2925.7 1633 3108.3 1665 3291.2 1622.3C3474 1579.7 3657 1462.3 3748.5 1403.7L3840 1345L3840 2161L3748.5 2161C3657 2161 3474 2161 3291.2 2161C3108.3 2161 2925.7 2161 2742.8 2161C2560 2161 2377 2161 2194.2 2161C2011.3 2161 1828.7 2161 1645.8 2161C1463 2161 1280 2161 1097.2 2161C914.3 2161 731.7 2161 548.8 2161C366 2161 183 2161 91.5 2161L0 2161Z" fill="#fba230"></path><path d="M0 1942L91.5 1887.2C183 1832.3 366 1722.7 548.8 1660.8C731.7 1599 914.3 1585 1097.2 1569.8C1280 1554.7 1463 1538.3 1645.8 1536.8C1828.7 1535.3 2011.3 1548.7 2194.2 1577.8C2377 1607 2560 1652 2742.8 1648.7C2925.7 1645.3 3108.3 1593.7 3291.2 1632.2C3474 1670.7 3657 1799.3 3748.5 1863.7L3840 1928L3840 2161L3748.5 2161C3657 2161 3474 2161 3291.2 2161C3108.3 2161 2925.7 2161 2742.8 2161C2560 2161 2377 2161 2194.2 2161C2011.3 2161 1828.7 2161 1645.8 2161C1463 2161 1280 2161 1097.2 2161C914.3 2161 731.7 2161 548.8 2161C366 2161 183 2161 91.5 2161L0 2161Z" fill="#fa9424"></path><path d="M0 2037L91.5 2010.8C183 1984.7 366 1932.3 548.8 1926C731.7 1919.7 914.3 1959.3 1097.2 1931.5C1280 1903.7 1463 1808.3 1645.8 1757.5C1828.7 1706.7 2011.3 1700.3 2194.2 1736.8C2377 1773.3 2560 1852.7 2742.8 1877.7C2925.7 1902.7 3108.3 1873.3 3291.2 1861.5C3474 1849.7 3657 1855.3 3748.5 1858.2L3840 1861L3840 2161L3748.5 2161C3657 2161 3474 2161 3291.2 2161C3108.3 2161 2925.7 2161 2742.8 2161C2560 2161 2377 2161 2194.2 2161C2011.3 2161 1828.7 2161 1645.8 2161C1463 2161 1280 2161 1097.2 2161C914.3 2161 731.7 2161 548.8 2161C366 2161 183 2161 91.5 2161L0 2161Z" fill="#f98619"></path><path d="M0 1825L91.5 1828.2C183 1831.3 366 1837.7 548.8 1888.5C731.7 1939.3 914.3 2034.7 1097.2 2059.8C1280 2085 1463 2040 1645.8 2016.8C1828.7 1993.7 2011.3 1992.3 2194.2 1974.3C2377 1956.3 2560 1921.7 2742.8 1914.3C2925.7 1907 3108.3 1927 3291.2 1929.8C3474 1932.7 3657 1918.3 3748.5 1911.2L3840 1904L3840 2161L3748.5 2161C3657 2161 3474 2161 3291.2 2161C3108.3 2161 2925.7 2161 2742.8 2161C2560 2161 2377 2161 2194.2 2161C2011.3 2161 1828.7 2161 1645.8 2161C1463 2161 1280 2161 1097.2 2161C914.3 2161 731.7 2161 548.8 2161C366 2161 183 2161 91.5 2161L0 2161Z" fill="#f7770f"></path></svg>