<svg id="visual" viewBox="0 0 3840 2160" width="3840" height="2160" xmlns="http://www.w3.org/2000/svg" xmlns:xlink="http://www.w3.org/1999/xlink" version="1.1"><path d="M0 558L91.5 604C183 650 366 742 548.8 756.7C731.7 771.3 914.3 708.7 1097.2 656.7C1280 604.7 1463 563.3 1645.8 528C1828.7 492.7 2011.3 463.3 2194.2 478.2C2377 493 2560 552 2742.8 574.3C2925.7 596.7 3108.3 582.3 3291.2 565.3C3474 548.3 3657 528.7 3748.5 518.8L3840 509L3840 0L3748.5 0C3657 0 3474 0 3291.2 0C3108.3 0 2925.7 0 2742.8 0C2560 0 2377 0 2194.2 0C2011.3 0 1828.7 0 1645.8 0C1463 0 1280 0 1097.2 0C914.3 0 731.7 0 548.8 0C366 0 183 0 91.5 0L0 0Z" fill="#f7770f"></path><path d="M0 427L91.5 441.3C183 455.7 366 484.3 548.8 500.5C731.7 516.7 914.3 520.3 1097.2 497C1280 473.7 1463 423.3 1645.8 377.3C1828.7 331.3 2011.3 289.7 2194.2 275.7C2377 261.7 2560 275.3 2742.8 317.5C2925.7 359.7 3108.3 430.3 3291.2 492.8C3474 555.3 3657 609.7 3748.5 636.8L3840 664L3840 0L3748.5 0C3657 0 3474 0 3291.2 0C3108.3 0 2925.7 0 2742.8 0C2560 0 2377 0 2194.2 0C2011.3 0 1828.7 0 1645.8 0C1463 0 1280 0 1097.2 0C914.3 0 731.7 0 548.8 0C366 0 183 0 91.5 0L0 0Z" fill="#dc5c0c"></path><path d="M0 325L91.5 312.7C183 300.3 366 275.7 548.8 260.8C731.7 246 914.3 241 1097.2 270C1280 299 1463 362 1645.8 383.7C1828.7 405.3 2011.3 385.7 2194.2 372.8C2377 360 2560 354 2742.8 371.8C2925.7 389.7 3108.3 431.3 3291.2 459.8C3474 488.3 3657 503.7 3748.5 511.3L3840 519L3840 0L3748.5 0C3657 0 3474 0 3291.2 0C3108.3 0 2925.7 0 2742.8 0C2560 0 2377 0 2194.2 0C2011.3 0 1828.7 0 1645.8 0C1463 0 1280 0 1097.2 0C914.3 0 731.7 0 548.8 0C366 0 183 0 91.5 0L0 0Z" fill="#c04109"></path><path d="M0 170L91.5 191.7C183 213.3 366 256.7 548.8 251C731.7 245.3 914.3 190.7 1097.2 198.8C1280 207 1463 278 1645.8 306.7C1828.7 335.3 2011.3 321.7 2194.2 289.8C2377 258 2560 208 2742.8 201.3C2925.7 194.7 3108.3 231.3 3291.2 246.8C3474 262.3 3657 256.7 3748.5 253.8L3840 251L3840 0L3748.5 0C3657 0 3474 0 3291.2 0C3108.3 0 2925.7 0 2742.8 0C2560 0 2377 0 2194.2 0C2011.3 0 1828.7 0 1645.8 0C1463 0 1280 0 1097.2 0C914.3 0 731.7 0 548.8 0C366 0 183 0 91.5 0L0 0Z" fill="#a42606"></path><path d="M0 87L91.5 97C183 107 366 127 548.8 152.7C731.7 178.3 914.3 209.7 1097.2 194.2C1280 178.7 1463 116.3 1645.8 87.7C1828.7 59 2011.3 64 2194.2 64.3C2377 64.7 2560 60.3 2742.8 86.7C2925.7 113 3108.3 170 3291.2 194.3C3474 218.7 3657 210.3 3748.5 206.2L3840 202L3840 0L3748.5 0C3657 0 3474 0 3291.2 0C3108.3 0 2925.7 0 2742.8 0C2560 0 2377 0 2194.2 0C2011.3 0 1828.7 0 1645.8 0C1463 0 1280 0 1097.2 0C914.3 0 731.7 0 548.8 0C366 0 183 0 91.5 0L0 0Z" fill="#870000"></path></svg>