<svg id="visual" viewBox="0 0 900 600" width="900" height="600" xmlns="http://www.w3.org/2000/svg" xmlns:xlink="http://www.w3.org/1999/xlink" version="1.1"><path d="M0 94L30 100.2C60 106.3 120 118.7 180 118.5C240 118.3 300 105.7 360 103.5C420 101.3 480 109.7 540 108.5C600 107.3 660 96.7 720 95.8C780 95 840 104 870 108.5L900 113L900 0L870 0C840 0 780 0 720 0C660 0 600 0 540 0C480 0 420 0 360 0C300 0 240 0 180 0C120 0 60 0 30 0L0 0Z" fill="#fcaf3c"></path><path d="M0 75L30 77C60 79 120 83 180 85.2C240 87.3 300 87.7 360 91.2C420 94.7 480 101.3 540 100.5C600 99.7 660 91.3 720 83.8C780 76.3 840 69.7 870 66.3L900 63L900 0L870 0C840 0 780 0 720 0C660 0 600 0 540 0C480 0 420 0 360 0C300 0 240 0 180 0C120 0 60 0 30 0L0 0Z" fill="#fb9d2c"></path><path d="M0 68L30 67.8C60 67.7 120 67.3 180 64.8C240 62.3 300 57.7 360 57.3C420 57 480 61 540 59.5C600 58 660 51 720 48.8C780 46.7 840 49.3 870 50.7L900 52L900 0L870 0C840 0 780 0 720 0C660 0 600 0 540 0C480 0 420 0 360 0C300 0 240 0 180 0C120 0 60 0 30 0L0 0Z" fill="#f98b1d"></path><path d="M0 41L30 38.5C60 36 120 31 180 31.7C240 32.3 300 38.7 360 42.3C420 46 480 47 540 46.3C600 45.7 660 43.3 720 41.7C780 40 840 39 870 38.5L900 38L900 0L870 0C840 0 780 0 720 0C660 0 600 0 540 0C480 0 420 0 360 0C300 0 240 0 180 0C120 0 60 0 30 0L0 0Z" fill="#f7770f"></path></svg>